HIERARCHY
ROOT Hips
{
	OFFSET -3.958830 18.904000 13.208200
	CHANNELS 6 Xposition Yposition Zposition Zrotation Yrotation Xrotation 
	JOINT LHipJoint
	{
		OFFSET 0.000000 0.000000 0.000000
		CHANNELS 3 Zrotation Yrotation Xrotation
		JOINT LeftUpLeg
		{
			OFFSET 1.800000 -1.400000 0.085000
			CHANNELS 3 Zrotation Yrotation Xrotation
			JOINT LeftLeg
			{
				OFFSET 2.215000 -6.000000 0.000000
				CHANNELS 3 Zrotation Yrotation Xrotation
				JOINT LeftFoot
				{
					OFFSET 2.500000 -6.900000 0.000000
					CHANNELS 3 Zrotation Yrotation Xrotation
					JOINT LeftToeBase
					{
						OFFSET 0.200000 -0.500000 1.950000
						CHANNELS 3 Zrotation Yrotation Xrotation
						End Site
						{
							OFFSET 0.000000 0.000000 0.000000
						}
					}
				}
			}
		}
	}
	JOINT RHipJoint
	{
		OFFSET 0.000000 0.000000 0.000000
		CHANNELS 3 Zrotation Yrotation Xrotation
		JOINT RightUpLeg
		{
			OFFSET -1.800000 -1.400000 0.085000
			CHANNELS 3 Zrotation Yrotation Xrotation
			JOINT RightLeg
			{
				OFFSET -2.215000 -6.000000 0.000000
				CHANNELS 3 Zrotation Yrotation Xrotation
				JOINT RightFoot
				{
					OFFSET -2.500000 -6.900000 0.000000
					CHANNELS 3 Zrotation Yrotation Xrotation
					JOINT RightToeBase
					{
						OFFSET -0.200000 -0.500000 1.950000
						CHANNELS 3 Zrotation Yrotation Xrotation
						End Site
						{
							OFFSET 0.000000 0.000000 0.000000
						}
					}
				}
			}
		}
	}
	JOINT LowerBack
	{
		OFFSET 0.000000 0.000000 0.000000
		CHANNELS 3 Zrotation Yrotation Xrotation
		JOINT Spine
		{
			OFFSET -0.087000 1.940000 -0.288900
			CHANNELS 3 Zrotation Yrotation Xrotation
			JOINT Spine1
			{
				OFFSET 0.000000 1.950000 0.060000
				CHANNELS 3 Zrotation Yrotation Xrotation
				JOINT Neck
				{
					OFFSET 0.000000 0.000000 0.000000
					CHANNELS 3 Zrotation Yrotation Xrotation
					JOINT Neck1
					{
						OFFSET 0.000000 1.600000 0.340000
						CHANNELS 3 Zrotation Yrotation Xrotation
						JOINT Head
						{
							OFFSET 0.000000 1.667000 -0.240000
							CHANNELS 3 Zrotation Yrotation Xrotation
							End Site
							{
								OFFSET 0.000000 0.000000 0.000000
							}
						}
					}
				}
				JOINT LeftShoulder
				{
					OFFSET 0.000000 0.000000 0.000000
					CHANNELS 3 Zrotation Yrotation Xrotation
					JOINT LeftArm
					{
						OFFSET 2.700000 1.550000 -0.730000
						CHANNELS 3 Zrotation Yrotation Xrotation
						JOINT LeftForeArm
						{
							OFFSET 5.450000 0.000000 0.000000
							CHANNELS 3 Zrotation Yrotation Xrotation
							JOINT LeftHand
							{
								OFFSET 3.450000 0.000000 0.000000
								CHANNELS 3 Zrotation Yrotation Xrotation
								JOINT LeftHandIndex1
								{
									OFFSET 0.750000 0.000000 0.000000
									CHANNELS 3 Zrotation Yrotation Xrotation
									End Site
									{
										OFFSET 0.000000 0.000000 0.000000
									}
								}
							}
						}
					}
				}
				JOINT RightShoulder
				{
					OFFSET 0.000000 0.000000 0.000000
					CHANNELS 3 Zrotation Yrotation Xrotation
					JOINT RightArm
					{
						OFFSET -2.700000 1.550000 -0.730000
						CHANNELS 3 Zrotation Yrotation Xrotation
						JOINT RightForeArm
						{
							OFFSET -5.450000 0.000000 0.000000
							CHANNELS 3 Zrotation Yrotation Xrotation
							JOINT RightHand
							{
								OFFSET -3.450000 0.000000 0.000000
								CHANNELS 3 Zrotation Yrotation Xrotation
								JOINT RightHandIndex1
								{
									OFFSET -0.750000 0.000000 0.000000
									CHANNELS 3 Zrotation Yrotation Xrotation
									End Site
									{
										OFFSET 0.000000 0.000000 0.000000
									}
								}
							}
						}
					}
				}
			}
		}
	}
}
MOTION
Frames: 5
Frame Time: 0.016667
-0.819630 17.513390 -5.296760 -1.223929 23.274011 -12.108358 -15.257926 13.940445 2.852754 24.138145 -0.663589 -17.924968 -0.135132 9.322396 38.250530 0.241394 7.379648 1.757722 0.628500 0.194380 0.628390 18.059678 -11.089847 2.640333 -2.539349 5.702540 -15.012880 -9.873684 -5.742140 66.848425 -1.869918 -9.390840 1.154237 0.034640 -0.299990 0.290930 -3.728929 -2.016407 -8.022480 -0.097119 -0.183407 53.556317 -5.806485 3.189165 16.063241 0.708580 -7.241030 -14.580877 -20.112107 -2.015686 44.185036 23.690840 -11.669310 -31.017660 -15.420992 -26.419574 7.862038 -37.462489 -15.952098 -13.784450 -154.804491 -64.201448 118.128336 -3.074405 3.029532 0.911660 -0.461040 0.513760 0.129590 14.233894 33.500345 16.216020 35.141869 2.256403 -20.168115 141.114878 57.800200 84.395781 2.647374 -1.380742 0.014450 -0.006930 -0.354970 -0.177040 
-0.857580 17.461250 -5.310800 -0.561810 23.499793 -12.093247 -15.278737 14.012421 2.878573 23.668741 -0.844388 -17.770941 -0.176828 9.436207 39.040233 0.239653 7.489599 1.702916 0.652240 0.220920 0.652530 18.014120 -11.165946 2.530092 -4.381392 5.461869 -14.761198 -9.374795 -6.097241 66.630646 -1.856083 -9.377998 1.137258 0.053960 -0.313730 0.308890 -3.648627 -2.082497 -7.973737 -1.033422 0.415171 53.384211 -5.781728 3.657710 16.707665 0.766729 -6.241025 -14.288955 -18.169830 -2.236698 45.134835 24.539940 -11.073530 -32.153220 -15.907573 -26.747745 7.621682 -38.839645 -17.502182 -13.282217 -152.890629 -63.755578 115.068857 -3.099257 3.031141 0.933730 -0.464620 0.535720 0.121620 14.404361 33.285958 16.154859 34.970881 2.605067 -19.851412 145.370287 57.382700 89.962556 2.598836 -1.388004 0.016960 -0.015690 -0.360780 -0.186150 
-0.927210 17.349350 -5.356340 -0.292629 23.015044 -12.494732 -15.231030 14.065071 2.795807 24.502924 -0.439998 -15.502544 -0.656937 9.444511 37.201014 0.234100 7.328978 1.776434 0.674630 0.254440 0.680210 18.021418 -11.392835 2.426845 -5.611603 5.157622 -13.953194 -10.053157 -5.335918 65.104398 -1.798257 -9.126854 1.211097 0.068120 -0.326160 0.313560 -3.747316 -1.762337 -7.882389 -0.533731 0.222206 53.344950 -7.219109 3.733202 17.931829 1.374073 -5.631761 -14.020951 -16.385913 -2.853310 44.489690 23.577200 -10.423450 -33.814580 -18.002697 -27.828883 7.778442 -39.845012 -18.595588 -13.328279 -158.893303 -64.403720 124.484016 -3.078899 3.025737 0.925720 -0.465090 0.545920 0.120350 15.165952 34.006784 16.148733 33.365340 4.257829 -18.936211 150.953019 56.866183 97.889172 2.536438 -1.406323 0.029750 -0.010910 -0.376140 -0.188460 
-1.024750 17.219740 -5.407400 -0.738251 22.845067 -12.351366 -15.231587 14.025704 2.839525 25.703437 -0.160611 -14.948772 -1.628675 9.555847 34.875309 0.227031 7.167037 1.844205 0.670450 0.260060 0.648490 18.029656 -11.324911 2.420156 -5.974205 5.274660 -14.206066 -9.035440 -5.911397 64.576647 -1.764854 -9.071994 1.233806 0.071610 -0.298790 0.307800 -3.744930 -1.816245 -7.916883 -0.033476 -0.224084 52.519245 -7.497165 3.420818 18.678523 1.547138 -6.235807 -14.348170 -17.592494 -2.095509 44.345234 24.130580 -10.829610 -33.209370 -19.003024 -28.893460 7.999789 -41.287424 -20.522288 -13.066713 -157.737865 -66.419282 124.991362 -3.086629 2.982923 0.895430 -0.454060 0.526250 0.140550 15.915311 35.378275 16.743466 32.480936 5.371711 -18.017246 157.390997 56.895910 108.622434 2.462445 -1.431471 0.035830 -0.001460 -0.375620 -0.165350 
-1.118690 17.089760 -5.475440 -1.042419 20.667279 -12.147594 -15.237322 13.914938 3.007668 26.951005 -0.195916 -15.175445 -3.045847 10.413624 35.512976 0.300317 7.508927 1.718371 0.683210 0.286360 0.620680 18.062225 -11.152053 2.430540 -5.543064 5.738956 -15.305472 -10.114850 -5.055331 65.113564 -1.781033 -9.087338 1.236728 0.080870 -0.301220 0.306690 -3.691810 -1.952791 -8.011445 0.035661 -0.329120 52.376207 -7.580911 3.434341 18.452416 1.983589 -8.171946 -15.225810 -22.065416 -0.389703 44.273086 23.769370 -11.183940 -33.931220 -20.056984 -29.583744 8.457263 -44.452690 -22.254845 -13.082889 -159.226497 -69.134766 129.179254 -3.055661 2.944136 0.889890 -0.470100 0.531780 0.160190 16.344647 37.761631 17.258092 31.262489 7.104526 -17.469447 156.988527 56.414217 107.674795 2.469589 -1.434873 0.053020 0.005940 -0.377260 -0.142620 
